<svg width="408" height="201" viewBox="0 0 408 201" fill="none" xmlns="http://www.w3.org/2000/svg">
<path d="M115.653 200.469C112.085 200.829 108.398 198.012 107.35 194.66L71.4538 82.3589C69.3516 75.9632 64.2956 66.4775 74.0573 63.2386C81.6177 60.7292 89.2476 58.2524 96.8767 55.8513L261.861 3.51145C265.213 2.41802 269.44 0.838791 272.874 0.502717C280.321 0.358572 280.947 5.97387 282.777 11.4872L314.358 109.095C316.332 115.259 318.476 121.461 320.169 127.693C322.758 137.233 303.044 140.401 296.121 142.652L136.065 194.356C131.036 195.921 120.3 199.681 115.653 200.469ZM269.042 9.40867C252.984 14.1272 236.582 19.6621 220.587 24.7136L100.683 62.7353C94.7713 64.6386 88.27 67.0357 82.2866 68.6126C94.7147 72.9975 106.332 79.5039 118.697 83.9732C125.447 88.1088 138.617 92.9333 146.367 96.3506L178.775 110.503C184.332 112.911 191.739 116.378 197.263 118.287C201.216 112.634 204.801 106.958 208.601 101.236L259.486 25.0226L266.618 14.0253C267.517 12.6468 268.803 11.0142 269.537 9.63802L269.474 9.3792L269.042 9.40867ZM275.586 14.7261L232.106 79.8153C229.831 83.1824 227.102 87.0377 225.168 90.572C241.779 96.6723 259.205 103.754 275.586 110.63C287.384 115.483 299.628 119.994 311.28 124.884C301.516 93.3673 291.383 61.9516 281.007 30.6315C280.283 28.4462 276.536 16.0402 275.586 14.7261ZM77.5091 74.6587C77.9536 78.1182 79.838 83.0876 80.9386 86.6268L105.429 163.684C107.901 171.241 110.338 179.7 113.16 187.055C118.203 177.568 124.32 167.503 129.851 158.214L148.833 126.806C152.018 121.549 155.297 115.735 158.692 110.63C153.538 107.446 141.903 102.796 135.868 100.1L77.5091 74.6587ZM220.682 97.0681L209.679 113.624C204.679 121.277 202.531 129.128 192.294 124.722C183.542 120.955 174.723 117.282 166.111 113.206L137.066 161.132C131.143 171.047 124.879 182.402 118.697 191.976L290.023 136.675C295.47 134.898 301.368 133.264 306.664 131.258C297.672 128.078 288.474 124.188 279.6 120.615L242.334 105.702C235.73 103.051 227.243 99.2996 220.682 97.0681Z" fill="#302EC8"/>
<path d="M13.3874 31.5332C9.48453 30.1161 10.7115 23.5978 14.6281 24.1391C17.9253 24.5949 21.2019 25.4563 24.4615 26.1838L66.1427 35.2468C70.9329 36.2537 76.2709 37.2599 80.9792 38.4688C84.6682 40.2226 83.9221 46.8128 78.0691 45.464C75.5107 44.8747 71.7037 44.2043 69.0629 43.6412L28.5842 34.8727C23.6137 33.7987 18.2695 32.7743 13.3874 31.5332Z" fill="#302EC8"/>
<path d="M405.616 96.8366C409.519 95.4195 408.292 88.9012 404.375 89.4425C401.078 89.8983 397.802 90.7597 394.542 91.4872L352.861 100.55C348.071 101.557 342.733 102.563 338.024 103.772C334.335 105.526 335.081 112.116 340.934 110.767C343.493 110.178 347.3 109.508 349.941 108.945L390.419 100.176C395.39 99.1021 400.734 98.0777 405.616 96.8366Z" fill="#302EC8"/>
<path d="M3.55574 72.815C-0.369136 72.6321 -0.874736 67.7677 1.20575 66.074C2.90205 64.6931 11.6686 64.8051 13.8291 64.7248L31.8969 64.1248C37.7414 63.9421 43.8401 63.2526 49.6744 63.5445C52.8597 64.2675 54.8132 66.5773 52.4746 69.8584C51.4005 71.3661 44.398 71.2673 42.1928 71.3562L29.702 71.8281C21.2444 72.1202 11.8751 72.7308 3.55574 72.815Z" fill="#302EC8"/>
<path d="M379.007 147.832C382.711 148.437 384.086 143.773 382.455 141.698C381.126 140.007 372.91 138.365 370.905 137.855L354.125 133.657C348.695 132.31 343.122 130.416 337.613 129.536C334.501 129.608 332.246 131.48 333.824 135.161C334.548 136.853 341.113 138.155 343.158 138.683L354.747 141.641C362.6 143.617 371.246 146.087 379.007 147.832Z" fill="#302EC8"/>
<path d="M8.93111 124.351C7.7212 124.9 6.1651 125.371 5.31187 124.354C3.92906 122.706 4.37658 118.921 6.66687 117.71L52.951 93.7481C53.8942 93.2575 55.3339 92.4189 56.7357 91.6564C58.8279 90.5183 61.7294 90.4503 62.2598 92.7684C62.6748 94.5817 62.1157 96.7691 60.5116 97.675C56.8826 99.725 53.1891 101.549 49.5211 103.421L15.4608 121.088C13.4662 122.1 11.0996 123.367 8.93111 124.351Z" fill="#302EC8"/>
<path d="M373.184 186.985C374.788 187.737 376.985 188.292 377.774 186.708C378.684 184.882 378.115 181.713 376.056 180.624L329.772 156.662C329.068 156.296 328.088 155.737 327.054 155.159C324.281 153.612 320.318 153.719 320.331 156.889C320.337 158.378 320.952 159.878 322.211 160.589C325.84 162.639 329.534 164.464 333.202 166.335L367.262 184.002C369.072 184.921 371.188 186.049 373.184 186.985Z" fill="#302EC8"/>
</svg>
