<svg width="280" height="261" viewBox="0 0 280 261" fill="none" xmlns="http://www.w3.org/2000/svg">
<path d="M136.535 70.0625C123.86 69.8557 138.801 53.0315 140.366 49.8181C144.014 41.4921 140.416 37.1209 134.479 32.9106C124.698 25.9741 121.288 3.96308 131.051 0.550138C139.326 -0.208246 134.223 7.84077 133.577 10.8994C130.366 26.1148 144.873 26.0789 148.275 36.8467C150.448 43.0661 149.706 50.6277 146.048 56.1444C144.88 57.9065 142.987 59.3607 141.879 61.2541C140.085 64.3154 140.353 68.8064 136.535 70.0625Z" fill="#302EC8"/>
<path d="M232.904 41.3184C229.305 41.3198 226.791 37.464 228.671 35.3014C231.381 32.1849 234.606 29.179 237.521 26.2541L250.162 13.5585C252.196 11.5434 256.136 7.05764 258.755 6.26761C261.511 6.27464 264.389 8.61015 263.033 11.6224C262.395 13.0389 236.352 39.8456 232.904 41.3184Z" fill="#302EC8"/>
<path d="M172.316 34.6928C165.695 36.419 163.355 22.2461 167.674 19.739C174.46 18.9006 176.816 32.0127 172.316 34.6928Z" fill="#302EC8"/>
<path d="M192.663 34.6927C193.293 31.9911 197.192 24.7733 200.054 24.0462C209.719 24.8437 200.38 37.7037 197.097 38.5076C194.217 38.3698 193.375 37.3721 192.663 34.6927Z" fill="#302EC8"/>
<path fill-rule="evenodd" clip-rule="evenodd" d="M153.354 110.04C145.663 102.303 117.649 78.3533 106.02 78.4186C98.4835 78.4605 95.6923 84.196 92.8542 90.028C92.4352 90.8888 92.0153 91.7517 91.579 92.5986L20.2442 232.471C17.6854 237.363 17.0957 237.944 13.3759 241.615C13.2427 241.746 13.1055 241.882 12.9641 242.022L4.94703 249.879C4.68019 250.139 4.36423 250.429 4.02303 250.743C2.31706 252.309 -0.0196613 254.454 0.000124821 256.385C0.0290888 259.201 2.05664 260.634 4.74979 260.49C7.52189 259.618 19.0156 247.541 21.379 245.04C24.3131 241.935 28.5583 240.422 32.6562 238.962C33.9757 238.491 35.28 238.026 36.5203 237.516L178.068 180.065C193.766 173.573 194.144 169.472 185.976 153.462C178.71 139.22 169.683 127.242 159.193 115.489C158.065 114.298 155.319 111.541 153.354 110.04ZM102.387 90.2896C102.8 88.3352 103.511 87.0396 105.439 86.291C107.466 86.464 111.05 88.3179 112.964 89.3766C142.016 105.45 166.802 131.579 181.121 161.635C181.15 161.694 181.18 161.758 181.213 161.827C182.208 163.905 185.177 170.105 180.753 169.405C153.056 163.783 113.434 115.524 102.387 90.2896ZM77.4102 138.31C84.1005 125.603 91.2207 111.97 97.6185 99.1216C98.2834 100.044 99.2804 101.929 100.247 103.756C100.981 105.144 101.697 106.498 102.237 107.372C118.511 133.724 142.33 160.938 170.383 174.281C163.792 177.674 154.727 181.159 147.225 184.042C146.152 184.455 145.11 184.855 144.113 185.24C142.399 185.904 140.615 186.675 138.81 187.455C135.654 188.819 132.435 190.211 129.416 191.102C106.763 181.086 88.8735 159.93 77.4102 138.31ZM68.32 156.485C69.8008 153.507 71.2827 150.527 72.8268 147.55C72.9594 147.635 74.5991 150.277 76.0616 152.633C77.0516 154.228 77.9604 155.692 78.2656 156.143C89.3448 172.553 102.404 184.771 119.259 195.018C116.004 196.567 111.778 198.261 107.894 199.818C106.298 200.458 104.761 201.074 103.371 201.648L92.912 205.747C81.6089 197.371 67.9079 183.083 60.8285 170.994C63.4978 166.184 65.9073 161.338 68.32 156.485ZM45.1815 201.648C49.017 194.371 52.705 186.944 56.313 179.551C56.7912 180.045 57.3295 180.794 57.7734 181.411C57.8281 181.487 57.8813 181.561 57.9329 181.632C63.5905 189.46 70.0484 196.667 77.2107 203.137C78.008 203.857 78.8405 204.564 79.6768 205.273C81.3376 206.682 83.0131 208.104 84.4567 209.671C81.2918 210.61 77.8302 211.993 74.4872 213.329C72.951 213.943 71.4398 214.547 69.994 215.093C68.8996 215.544 67.8066 215.983 66.7148 216.421C64.7493 217.211 62.7876 217.998 60.8285 218.85C55.1851 213.822 51.7314 209.617 47.3897 204.329C46.6817 203.467 45.9501 202.576 45.1815 201.648ZM36.2528 219.113C37.8467 215.976 39.4411 212.837 40.9778 209.671C42.6387 211.38 44.1036 213.045 45.5669 214.708C47.7304 217.167 49.8904 219.622 52.675 222.209C48.4373 223.813 44.2528 225.498 40.0527 227.189C39.6604 227.347 39.2679 227.505 38.8753 227.663L38.606 227.776C35.9634 228.883 33.044 230.106 30.3634 230.987C32.2492 226.995 34.2507 223.055 36.2528 219.113Z" fill="#302EC8"/>
<path d="M166.931 88.8569C163.581 89.5015 160.83 86.5903 162.366 83.3281L174.816 56.4724C175.982 53.9473 176.901 50.3262 179.622 49.1599C188.15 48.4572 183.744 56.1422 181.859 60.2406L176.302 72.103C174.46 76.0665 170.479 87.2083 166.931 88.8569Z" fill="#302EC8"/>
<path d="M237.809 75.3689C233.814 76.3622 227.292 69.9921 242.181 64.9492C247.515 64.3441 249.384 70.2656 244.439 72.5466C242.227 73.5666 240.128 74.575 237.809 75.3689Z" fill="#302EC8"/>
<path d="M191.01 100.227C184.937 101.254 183.411 94.655 188.448 92.6941C195.837 89.8159 208.015 86.3226 215.739 84.3373C220.143 83.702 222.18 87.0052 220.389 90.2207C219.077 92.575 194.777 99.314 191.01 100.227Z" fill="#302EC8"/>
<path d="M235.2 102.26C231.853 100.396 230.946 95.5048 235.495 94.5509C238.024 94.0205 240.557 93.7205 243.104 93.3279L257.432 91.1509C262.366 90.4339 270.684 88.745 275.261 88.857C280.865 87.3533 281.657 95.0067 276.79 96.0532C272.213 97.0373 267.489 97.5741 262.849 98.2783L237.809 102.26C236.964 102.292 236.051 102.267 235.2 102.26Z" fill="#302EC8"/>
<path d="M222.709 120.905C220.894 121.122 187.027 113.113 180.614 110.81C176.55 109.35 176.821 104.556 180.753 102.975C182.703 102.944 186.651 104.324 188.727 104.843L217.566 111.83C219.991 112.402 224.53 112.898 225.481 115.388C226.468 117.972 225.01 119.927 222.709 120.905Z" fill="#302EC8"/>
<path d="M239.844 125.923C240.393 123.646 240.804 122.587 243.164 121.833C251.616 122.13 254.075 129.073 247.901 130.736C243.852 130.675 240.893 130.191 239.844 125.923Z" fill="#302EC8"/>
<path d="M248.536 168.476C236.047 164.058 236.768 153.775 227.554 150.387C220.365 147.743 215.331 153.325 208.345 153.785C204.181 154.058 200.659 150.214 203.994 146.818C204.836 146.047 221.129 141.763 222.709 141.73C239.001 140.709 240.889 156.479 250.659 160.623C258.207 163.825 262.347 159.318 266.701 160.57C274.557 162.827 265.415 174.074 248.536 168.476Z" fill="#302EC8"/>
</svg>
