<?xml version="1.0" encoding="utf-8"?><svg xmlns="http://www.w3.org/2000/svg" xmlns:xlink="http://www.w3.org/1999/xlink"><symbol viewBox="0 0 24 24" id="arrow-return" xmlns="http://www.w3.org/2000/svg"><path d="M2.42773 5.13477C2.42773 4.58248 2.87545 4.13477 3.42773 4.13477C3.98002 4.13477 4.42773 4.58248 4.42773 5.13477V9.27734H8.57031C9.1225 9.27734 9.57016 9.72519 9.57031 10.2773C9.57031 10.8296 9.1226 11.2773 8.57031 11.2773H3.42773C2.87545 11.2773 2.42773 10.8296 2.42773 10.2773V5.13477Z"/><path d="M11.6406 3.37063C13.5115 3.1074 15.4178 3.4595 17.0713 4.37356C18.7246 5.28757 20.0364 6.71389 20.8086 8.43801C21.5806 10.1622 21.7716 12.0911 21.3525 13.9331C20.9333 15.7752 19.9264 17.4315 18.4844 18.6519C17.0421 19.8723 15.2416 20.5912 13.3554 20.6997C11.4694 20.8082 9.599 20.3012 8.02634 19.2544C6.45366 18.2076 5.26355 16.6779 4.63572 14.896C4.4522 14.3751 4.72615 13.8041 5.24705 13.6206C5.76792 13.4371 6.3389 13.7101 6.52244 14.231C7.00616 15.604 7.92295 16.7828 9.13474 17.5894C10.3465 18.3959 11.7879 18.7873 13.2412 18.7036C14.6944 18.6199 16.0812 18.0658 17.1924 17.1255C18.3035 16.1852 19.0793 14.9091 19.4023 13.4898C19.7253 12.0704 19.5783 10.5839 18.9834 9.25539C18.3884 7.92694 17.3774 6.82779 16.1035 6.12356C14.8296 5.41936 13.3613 5.14837 11.9199 5.3511C10.4784 5.55391 9.14151 6.22009 8.11131 7.24856C8.1043 7.25555 8.09703 7.26228 8.08982 7.26906L4.11228 11.0064C3.70983 11.3844 3.07737 11.3648 2.6992 10.9624C2.32104 10.56 2.34076 9.92754 2.74314 9.54934L6.7197 5.81203C8.05381 4.48925 9.77969 3.63252 11.6406 3.37063Z"/></symbol><symbol viewBox="0 0 24 24" id="arrow-up" xmlns="http://www.w3.org/2000/svg"><path d="M12.9999 20L10.9999 20L10.9999 8.00003L5.49992 13.5L4.07992 12.08L11.9999 4.16003L19.9199 12.08L18.4999 13.5L12.9999 8.00003L12.9999 20Z"/></symbol><symbol viewBox="0 0 14 14" id="cross" xmlns="http://www.w3.org/2000/svg"><path d="M12.286 0.292917C12.6764 -0.097521 13.3094 -0.0974304 13.7 0.292917C14.0905 0.683346 14.0904 1.31641 13.7 1.70698L8.41291 6.99604L13.7069 12.2929C14.0972 12.6835 14.0973 13.3166 13.7069 13.707C13.3163 14.0973 12.6832 14.0974 12.2928 13.707L6.99982 8.4101L1.70686 13.707C1.31643 14.0974 0.683361 14.0973 0.292793 13.707C-0.0976415 13.3166 -0.0975535 12.6835 0.292793 12.2929L5.58576 6.99604L0.299628 1.70698C-0.0907191 1.31641 -0.0908101 0.683346 0.299628 0.292917C0.690198 -0.0974307 1.32326 -0.0975217 1.71369 0.292917L6.99982 5.58198L12.286 0.292917Z"/></symbol><symbol viewBox="0 0 15 15" id="dislike" xmlns="http://www.w3.org/2000/svg"><path d="M1.2998 7.79395L1.2998 9.10547C1.29986 9.15681 1.32068 9.20309 1.35156 9.23437C1.38187 9.2649 1.41958 9.2793 1.45508 9.2793L5.16504 9.2793C6.73104 9.2793 7.83983 10.8102 7.35059 12.2979L6.99805 13.3711L9.52832 10.583C9.58189 10.524 9.6113 10.4469 9.61133 10.3672L9.61133 2.2998L4.27637 2.2998V1L9.91113 1L10.0137 1.00488C10.5179 1.0561 10.9111 1.48224 10.9111 2L10.9111 10.3672C10.9111 10.7196 10.7969 11.0612 10.5869 11.3408L10.4902 11.457L7.38379 14.8789C7.31375 14.9559 7.21445 15 7.11035 15C6.88007 14.9999 6.65323 14.9442 6.44824 14.8379C6.24311 14.7315 6.06542 14.5771 5.93066 14.3877C5.79606 14.1984 5.70765 13.9796 5.67285 13.749C5.63807 13.5183 5.65764 13.282 5.73047 13.0605L6.11523 11.8916C6.3147 11.2851 5.90342 10.6622 5.29004 10.5869L5.16504 10.5791L1.45508 10.5791C1.06923 10.5791 0.698619 10.4238 0.425781 10.1475C0.153049 9.87115 5.37159e-05 9.4962 0 9.10547L0 7.79395C0 7.68637 0.0115942 7.57881 0.0341797 7.47363C0.0540712 7.38113 0.0833116 7.29042 0.12207 7.2041L2.34961 2.24707L2.41797 2.10742C2.76021 1.47408 3.40315 1.0586 4.12109 1.00586L4.27637 1V2.2998C3.95655 2.29981 3.66622 2.48757 3.53516 2.7793L1.30859 7.73633C1.30723 7.73937 1.30541 7.74284 1.30469 7.74609C1.30136 7.76159 1.2998 7.7781 1.2998 7.79395ZM15 2.75391L15 9.38477C15 9.72676 14.883 10.0571 14.6709 10.3193L14.5742 10.4268C14.3354 10.6687 14.0217 10.8182 13.6885 10.8516L13.5449 10.8584H12.5771L12.4766 10.8486C12.2488 10.8019 12.0771 10.6 12.0771 10.3584L12.0771 1.78027C12.0771 1.53873 12.2488 1.33675 12.4766 1.29004L12.5771 1.28027H13.5449V2.58008H13.3779L13.3779 9.55859H13.5449C13.5805 9.55859 13.6181 9.54437 13.6484 9.51367C13.6794 9.48235 13.7002 9.43619 13.7002 9.38477L13.7002 2.75391C13.7002 2.70248 13.6794 2.65632 13.6484 2.625C13.6181 2.59426 13.5805 2.58008 13.5449 2.58008V1.28027L13.6885 1.28711C14.0217 1.32052 14.3354 1.46998 14.5742 1.71191C14.8468 1.98824 15 2.36325 15 2.75391Z"/></symbol><symbol viewBox="0 0 14 14" id="drop-arrow" xmlns="http://www.w3.org/2000/svg"><path d="M7 10C7.20628 10 7.40406 9.9262 7.54992 9.79492L13.7722 4.19488C14.0759 3.92151 14.0759 3.4784 13.7722 3.20503C13.4684 2.93166 12.9761 2.93166 12.6724 3.20503L7 8.31014L1.32764 3.20503C1.0239 2.93166 0.53155 2.93166 0.227807 3.20503C-0.0759366 3.4784 -0.0759368 3.92151 0.227807 4.19488L6.45008 9.79492L6.56857 9.88242C6.6954 9.95852 6.84532 10 7 10Z"/></symbol><symbol viewBox="0 0 15 15" id="duplicate" xmlns="http://www.w3.org/2000/svg"><path d="M10.2314 6.72754C10.2314 5.81202 9.48876 5.06934 8.57324 5.06934H3.95801C3.04252 5.06938 2.30078 5.81205 2.30078 6.72754V11.3428C2.30082 12.2582 3.04255 13 3.95801 13H8.57324C9.48874 13 10.2314 12.2583 10.2314 11.3428V6.72754ZM11.5312 10.2188C12.3579 10.1251 13 9.42494 13 8.57324V3.95801C13 3.04255 12.2582 2.30082 11.3428 2.30078H6.72754C5.87581 2.30078 5.1747 2.94284 5.08105 3.76953H8.57324C10.2067 3.76953 11.5312 5.09405 11.5312 6.72754V10.2188ZM14.3008 8.57324C14.3008 10.1457 13.0732 11.4305 11.5244 11.5244C11.4305 13.0732 10.1457 14.3008 8.57324 14.3008H3.95801C2.32458 14.3007 1.00004 12.9762 1 11.3428V6.72754C1 5.15541 2.227 3.86975 3.77539 3.77539C3.86975 2.227 5.15541 1 6.72754 1H11.3428C12.9762 1.00004 14.3007 2.32458 14.3008 3.95801V8.57324Z"/></symbol><symbol viewBox="0 0 15 15" id="like" xmlns="http://www.w3.org/2000/svg"><path d="M13.7002 7.20605V5.89453C13.7001 5.84319 13.6793 5.79691 13.6484 5.76562C13.6181 5.7351 13.5804 5.7207 13.5449 5.7207H9.83496C8.26896 5.7207 7.16017 4.18976 7.64941 2.70215L8.00195 1.62891L5.47168 4.41699C5.41811 4.47603 5.3887 4.55309 5.38867 4.63281V12.7002H10.7236V14H5.08887L4.98633 13.9951C4.48208 13.9439 4.08887 13.5178 4.08887 13V4.63281C4.08889 4.28042 4.20307 3.9388 4.41309 3.65918L4.50977 3.54297L7.61621 0.121094C7.68625 0.0440938 7.78555 0 7.88965 0C8.11993 9.82942e-05 8.34677 0.0558305 8.55176 0.162109C8.75689 0.268514 8.93458 0.422922 9.06934 0.612305C9.20394 0.801556 9.29235 1.0204 9.32715 1.25098C9.36193 1.48175 9.34236 1.71797 9.26953 1.93945L8.88477 3.1084C8.6853 3.71489 9.09658 4.3378 9.70996 4.41309L9.83496 4.4209H13.5449C13.9308 4.4209 14.3014 4.57617 14.5742 4.85254C14.847 5.12885 14.9999 5.5038 15 5.89453V7.20605C15 7.31363 14.9884 7.42119 14.9658 7.52637C14.9459 7.61887 14.9167 7.70958 14.8779 7.7959L12.6504 12.7529L12.582 12.8926C12.2398 13.5259 11.5969 13.9414 10.8789 13.9941L10.7236 14V12.7002C11.0434 12.7002 11.3338 12.5124 11.4648 12.2207L13.6914 7.26367C13.6928 7.26063 13.6946 7.25716 13.6953 7.25391C13.6986 7.23841 13.7002 7.2219 13.7002 7.20605ZM0 12.2461V5.61523C0 5.27324 0.116983 4.9429 0.329102 4.68066L0.425781 4.57324C0.664625 4.33131 0.978301 4.18184 1.31152 4.14844L1.45508 4.1416H2.42285L2.52344 4.15137C2.75118 4.19807 2.92285 4.40005 2.92285 4.6416V13.2197C2.92285 13.4613 2.75117 13.6633 2.52344 13.71L2.42285 13.7197H1.45508V12.4199H1.62207V5.44141H1.45508C1.41948 5.44141 1.38191 5.45563 1.35156 5.48633C1.32064 5.51765 1.2998 5.56381 1.2998 5.61523V12.2461C1.2998 12.2975 1.32064 12.3437 1.35156 12.375C1.38192 12.4057 1.41946 12.4199 1.45508 12.4199V13.7197L1.31152 13.7129C0.978305 13.6795 0.664622 13.53 0.425781 13.2881C0.153194 13.0118 0 12.6367 0 12.2461Z"/></symbol><symbol viewBox="0 0 16 16" id="plus" xmlns="http://www.w3.org/2000/svg"><path d="M7.00391 15V8.99609H1C0.44774 8.99609 4.09395e-05 8.54834 0 7.99609C0 7.44381 0.447715 6.99609 1 6.99609H7.00391V1C7.00391 0.447741 7.45166 4.23337e-05 8.00391 0C8.55619 0 9.00391 0.447715 9.00391 1V6.99609H15C15.5523 6.99609 16 7.44381 16 7.99609C16 8.54834 15.5523 8.99609 15 8.99609H9.00391V15C9.00391 15.5523 8.55619 16 8.00391 16C7.45166 16 7.00391 15.5523 7.00391 15Z"/></symbol><symbol viewBox="0 0 16 16" id="user" xmlns="http://www.w3.org/2000/svg"><path d="M13 12C13 11.7091 12.7699 11.2258 11.9102 10.7568C11.0882 10.3085 9.88444 10 8.5 10C7.11556 10 5.9118 10.3085 5.08984 10.7568C4.23011 11.2258 4 11.7091 4 12C4 12.2909 4.23011 12.7742 5.08984 13.2432C5.9118 13.6915 7.11556 14 8.5 14C9.88444 14 11.0882 13.6915 11.9102 13.2432C12.7699 12.7742 13 12.2909 13 12ZM9.53125 3.5C9.53125 2.58789 8.8725 2 8.23926 2C7.60602 2.00001 6.94727 2.5879 6.94727 3.5C6.94727 4.4121 7.60602 4.99999 8.23926 5C8.8725 5 9.53125 4.41211 9.53125 3.5ZM15 12C15 13.3658 13.9989 14.3822 12.8682 14.999C11.6995 15.6365 10.1531 16 8.5 16C6.84687 16 5.30048 15.6365 4.13184 14.999C3.00111 14.3822 2 13.3658 2 12C2 10.6342 3.00111 9.61781 4.13184 9.00098C5.30048 8.36353 6.84687 8 8.5 8C10.1531 8 11.6995 8.36353 12.8682 9.00098C13.9989 9.61781 15 10.6342 15 12ZM11.5312 3.5C11.5312 5.34931 10.1373 7 8.23926 7C6.3412 6.99999 4.94727 5.3493 4.94727 3.5C4.94727 1.6507 6.3412 1.16251e-05 8.23926 0C10.1373 0 11.5312 1.65069 11.5312 3.5Z"/></symbol></svg>