<?xml version="1.0" encoding="utf-8"?><svg xmlns="http://www.w3.org/2000/svg" xmlns:xlink="http://www.w3.org/1999/xlink"><symbol viewBox="0 0 15 15" id="dislike" xmlns="http://www.w3.org/2000/svg"><path d="M1.2998 7.79395L1.2998 9.10547C1.29986 9.15681 1.32068 9.20309 1.35156 9.23437C1.38187 9.2649 1.41958 9.2793 1.45508 9.2793L5.16504 9.2793C6.73104 9.2793 7.83983 10.8102 7.35059 12.2979L6.99805 13.3711L9.52832 10.583C9.58189 10.524 9.6113 10.4469 9.61133 10.3672L9.61133 2.2998L4.27637 2.2998V1L9.91113 1L10.0137 1.00488C10.5179 1.0561 10.9111 1.48224 10.9111 2L10.9111 10.3672C10.9111 10.7196 10.7969 11.0612 10.5869 11.3408L10.4902 11.457L7.38379 14.8789C7.31375 14.9559 7.21445 15 7.11035 15C6.88007 14.9999 6.65323 14.9442 6.44824 14.8379C6.24311 14.7315 6.06542 14.5771 5.93066 14.3877C5.79606 14.1984 5.70765 13.9796 5.67285 13.749C5.63807 13.5183 5.65764 13.282 5.73047 13.0605L6.11523 11.8916C6.3147 11.2851 5.90342 10.6622 5.29004 10.5869L5.16504 10.5791L1.45508 10.5791C1.06923 10.5791 0.698619 10.4238 0.425781 10.1475C0.153049 9.87115 5.37159e-05 9.4962 0 9.10547L0 7.79395C0 7.68637 0.0115942 7.57881 0.0341797 7.47363C0.0540712 7.38113 0.0833116 7.29042 0.12207 7.2041L2.34961 2.24707L2.41797 2.10742C2.76021 1.47408 3.40315 1.0586 4.12109 1.00586L4.27637 1V2.2998C3.95655 2.29981 3.66622 2.48757 3.53516 2.7793L1.30859 7.73633C1.30723 7.73937 1.30541 7.74284 1.30469 7.74609C1.30136 7.76159 1.2998 7.7781 1.2998 7.79395ZM15 2.75391L15 9.38477C15 9.72676 14.883 10.0571 14.6709 10.3193L14.5742 10.4268C14.3354 10.6687 14.0217 10.8182 13.6885 10.8516L13.5449 10.8584H12.5771L12.4766 10.8486C12.2488 10.8019 12.0771 10.6 12.0771 10.3584L12.0771 1.78027C12.0771 1.53873 12.2488 1.33675 12.4766 1.29004L12.5771 1.28027H13.5449V2.58008H13.3779L13.3779 9.55859H13.5449C13.5805 9.55859 13.6181 9.54437 13.6484 9.51367C13.6794 9.48235 13.7002 9.43619 13.7002 9.38477L13.7002 2.75391C13.7002 2.70248 13.6794 2.65632 13.6484 2.625C13.6181 2.59426 13.5805 2.58008 13.5449 2.58008V1.28027L13.6885 1.28711C14.0217 1.32052 14.3354 1.46998 14.5742 1.71191C14.8468 1.98824 15 2.36325 15 2.75391Z"/></symbol><symbol viewBox="0 0 15 15" id="duplicate" xmlns="http://www.w3.org/2000/svg"><path d="M10.2314 6.72754C10.2314 5.81202 9.48876 5.06934 8.57324 5.06934H3.95801C3.04252 5.06938 2.30078 5.81205 2.30078 6.72754V11.3428C2.30082 12.2582 3.04255 13 3.95801 13H8.57324C9.48874 13 10.2314 12.2583 10.2314 11.3428V6.72754ZM11.5312 10.2188C12.3579 10.1251 13 9.42494 13 8.57324V3.95801C13 3.04255 12.2582 2.30082 11.3428 2.30078H6.72754C5.87581 2.30078 5.1747 2.94284 5.08105 3.76953H8.57324C10.2067 3.76953 11.5312 5.09405 11.5312 6.72754V10.2188ZM14.3008 8.57324C14.3008 10.1457 13.0732 11.4305 11.5244 11.5244C11.4305 13.0732 10.1457 14.3008 8.57324 14.3008H3.95801C2.32458 14.3007 1.00004 12.9762 1 11.3428V6.72754C1 5.15541 2.227 3.86975 3.77539 3.77539C3.86975 2.227 5.15541 1 6.72754 1H11.3428C12.9762 1.00004 14.3007 2.32458 14.3008 3.95801V8.57324Z"/></symbol><symbol viewBox="0 0 15 15" id="like" xmlns="http://www.w3.org/2000/svg"><path d="M13.7002 7.20605V5.89453C13.7001 5.84319 13.6793 5.79691 13.6484 5.76562C13.6181 5.7351 13.5804 5.7207 13.5449 5.7207H9.83496C8.26896 5.7207 7.16017 4.18976 7.64941 2.70215L8.00195 1.62891L5.47168 4.41699C5.41811 4.47603 5.3887 4.55309 5.38867 4.63281V12.7002H10.7236V14H5.08887L4.98633 13.9951C4.48208 13.9439 4.08887 13.5178 4.08887 13V4.63281C4.08889 4.28042 4.20307 3.9388 4.41309 3.65918L4.50977 3.54297L7.61621 0.121094C7.68625 0.0440938 7.78555 0 7.88965 0C8.11993 9.82942e-05 8.34677 0.0558305 8.55176 0.162109C8.75689 0.268514 8.93458 0.422922 9.06934 0.612305C9.20394 0.801556 9.29235 1.0204 9.32715 1.25098C9.36193 1.48175 9.34236 1.71797 9.26953 1.93945L8.88477 3.1084C8.6853 3.71489 9.09658 4.3378 9.70996 4.41309L9.83496 4.4209H13.5449C13.9308 4.4209 14.3014 4.57617 14.5742 4.85254C14.847 5.12885 14.9999 5.5038 15 5.89453V7.20605C15 7.31363 14.9884 7.42119 14.9658 7.52637C14.9459 7.61887 14.9167 7.70958 14.8779 7.7959L12.6504 12.7529L12.582 12.8926C12.2398 13.5259 11.5969 13.9414 10.8789 13.9941L10.7236 14V12.7002C11.0434 12.7002 11.3338 12.5124 11.4648 12.2207L13.6914 7.26367C13.6928 7.26063 13.6946 7.25716 13.6953 7.25391C13.6986 7.23841 13.7002 7.2219 13.7002 7.20605ZM0 12.2461V5.61523C0 5.27324 0.116983 4.9429 0.329102 4.68066L0.425781 4.57324C0.664625 4.33131 0.978301 4.18184 1.31152 4.14844L1.45508 4.1416H2.42285L2.52344 4.15137C2.75118 4.19807 2.92285 4.40005 2.92285 4.6416V13.2197C2.92285 13.4613 2.75117 13.6633 2.52344 13.71L2.42285 13.7197H1.45508V12.4199H1.62207V5.44141H1.45508C1.41948 5.44141 1.38191 5.45563 1.35156 5.48633C1.32064 5.51765 1.2998 5.56381 1.2998 5.61523V12.2461C1.2998 12.2975 1.32064 12.3437 1.35156 12.375C1.38192 12.4057 1.41946 12.4199 1.45508 12.4199V13.7197L1.31152 13.7129C0.978305 13.6795 0.664622 13.53 0.425781 13.2881C0.153194 13.0118 0 12.6367 0 12.2461Z"/></symbol></svg>