<svg width="40" height="40" viewBox="0 0 40 40" fill="none" xmlns="http://www.w3.org/2000/svg">
<path d="M0 6C0 2.68629 2.68629 0 6 0H34C37.3137 0 40 2.68629 40 6V34C40 37.3137 37.3137 40 34 40H6C2.68629 40 0 37.3137 0 34V6Z" fill="#EDECFF"/>
<path d="M14 20C14 22.7614 16.2386 25 19 25H21C23.7614 25 26 22.7614 26 20M20 22C18.3431 22 17 20.6569 17 19V15C17 13.3431 18.3431 12 20 12C21.6569 12 23 13.3431 23 15V19C23 20.6569 21.6569 22 20 22ZM20 22V27M22 28H18" stroke="#302EC8" stroke-width="2" stroke-linecap="round"/>
</svg>
