<svg width="40" height="40" viewBox="0 0 40 40" fill="none" xmlns="http://www.w3.org/2000/svg">
<rect width="40" height="40" rx="20" />
<path d="M19 27C19 27.5523 19.4477 28 20 28C20.5522 28 21 27.5523 21 27L21 16L25.7928 20.7929C26.1834 21.1834 26.8194 21.1805 27.21 20.79C27.6005 20.3995 27.6034 19.7634 27.2128 19.3729L20.7071 12.8671C20.3165 12.4766 19.6834 12.4766 19.2928 12.8671L12.7871 19.3729C12.3965 19.7634 12.3994 20.3995 12.79 20.79C13.1805 21.1805 13.8165 21.1834 14.2071 20.7929L19 16L19 27Z" fill="white"/>
</svg>
