<svg width="18" height="18" viewBox="0 0 18 18" fill="none" xmlns="http://www.w3.org/2000/svg">
<path d="M9 17C9.30125 17 9.54545 16.7558 9.54545 16.4545C9.54545 16.1533 9.30125 15.9091 9 15.9091C5.18421 15.9091 2.09091 12.8158 2.09091 9C2.09091 5.18421 5.18421 2.09091 9 2.09091C12.8158 2.09091 15.9091 5.18421 15.9091 9C15.9091 10.1488 15.6289 11.256 15.1004 12.2466C14.9587 12.5124 15.0592 12.8428 15.325 12.9846C15.5908 13.1264 15.9212 13.0259 16.063 12.7601C16.6752 11.6123 17 10.329 17 9C17 4.58172 13.4183 1 9 1C4.58172 1 1 4.58172 1 9C1 13.4183 4.58172 17 9 17Z" fill="#302EC8"/>
<path d="M1.5 9C1.5 4.85786 4.85786 1.5 9 1.5C13.1421 1.5 16.5 4.85786 16.5 9C16.5 10.2466 16.1956 11.4491 15.6221 12.5244C15.6103 12.5466 15.5827 12.5548 15.5605 12.543C15.5385 12.5312 15.5303 12.5045 15.542 12.4824C16.109 11.4194 16.4092 10.2309 16.4092 9C16.4092 4.90807 13.0919 1.59082 9 1.59082C4.90807 1.59082 1.59082 4.90807 1.59082 9C1.59082 13.0919 4.90807 16.4092 9 16.4092C9.02496 16.4092 9.04566 16.4292 9.0459 16.4541C9.0459 16.4792 9.0251 16.5 9 16.5C4.85786 16.5 1.5 13.1421 1.5 9ZM0.5 9C0.5 13.6944 4.30558 17.5 9 17.5C9.57739 17.5 10.0459 17.0315 10.0459 16.4541C10.0457 15.8769 9.57724 15.4092 9 15.4092C5.46036 15.4092 2.59082 12.5396 2.59082 9C2.59082 5.46036 5.46036 2.59082 9 2.59082C12.5396 2.59082 15.4092 5.46036 15.4092 9C15.4092 10.0667 15.149 11.0934 14.6592 12.0117C14.3877 12.5211 14.5805 13.1541 15.0898 13.4258C15.5993 13.6974 16.2322 13.5045 16.5039 12.9951C17.1546 11.7751 17.5 10.4111 17.5 9C17.5 4.30558 13.6944 0.5 9 0.5C4.30558 0.5 0.5 4.30558 0.5 9Z" fill="#302EC8"/>
</svg>
