<svg width="842" height="22" viewBox="0 0 842 22" fill="none" xmlns="http://www.w3.org/2000/svg">
<path d="M1 13L1 9" stroke="#807FCB" stroke-width="2" stroke-linecap="round"/>
<path d="M6.6001 13L6.6001 9" stroke="#807FCB" stroke-width="2" stroke-linecap="round"/>
<path d="M12.2 13L12.2 9" stroke="#807FCB" stroke-width="2" stroke-linecap="round"/>
<path d="M17.8 13L17.8001 9" stroke="#807FCB" stroke-width="2" stroke-linecap="round"/>
<path d="M23.3999 13L23.3999 9" stroke="#807FCB" stroke-width="2" stroke-linecap="round"/>
<path d="M29 13L29 9" stroke="#807FCB" stroke-width="2" stroke-linecap="round"/>
<path d="M34.6001 13L34.6001 9" stroke="#807FCB" stroke-width="2" stroke-linecap="round"/>
<path d="M40.2 13L40.2 9" stroke="#807FCB" stroke-width="2" stroke-linecap="round"/>
<path d="M45.8 13L45.8001 9" stroke="#807FCB" stroke-width="2" stroke-linecap="round"/>
<path d="M51.3999 13L51.3999 9" stroke="#807FCB" stroke-width="2" stroke-linecap="round"/>
<path d="M57 13L57 9" stroke="#807FCB" stroke-width="2" stroke-linecap="round"/>
<path d="M62.6001 13L62.6001 9" stroke="#807FCB" stroke-width="2" stroke-linecap="round"/>
<path d="M68.2 13L68.2 9" stroke="#807FCB" stroke-width="2" stroke-linecap="round"/>
<path d="M73.8 13L73.8001 9" stroke="#807FCB" stroke-width="2" stroke-linecap="round"/>
<path d="M79.3999 13L79.3999 9" stroke="#807FCB" stroke-width="2" stroke-linecap="round"/>
<path d="M85 13L85 9" stroke="#807FCB" stroke-width="2" stroke-linecap="round"/>
<path d="M90.6001 13L90.6001 9" stroke="#807FCB" stroke-width="2" stroke-linecap="round"/>
<path d="M96.2 13L96.2 9" stroke="#807FCB" stroke-width="2" stroke-linecap="round"/>
<path d="M101.8 13L101.8 9" stroke="#807FCB" stroke-width="2" stroke-linecap="round"/>
<path d="M107.4 13L107.4 9" stroke="#807FCB" stroke-width="2" stroke-linecap="round"/>
<path d="M113 13L113 9" stroke="#807FCB" stroke-width="2" stroke-linecap="round"/>
<path d="M118.6 13L118.6 9" stroke="#807FCB" stroke-width="2" stroke-linecap="round"/>
<path d="M124.2 13L124.2 9" stroke="#807FCB" stroke-width="2" stroke-linecap="round"/>
<path d="M129.8 13L129.8 9" stroke="#807FCB" stroke-width="2" stroke-linecap="round"/>
<path d="M135.4 13L135.4 9" stroke="#807FCB" stroke-width="2" stroke-linecap="round"/>
<path d="M141 13L141 9" stroke="#807FCB" stroke-width="2" stroke-linecap="round"/>
<path d="M146.6 13L146.6 9" stroke="#807FCB" stroke-width="2" stroke-linecap="round"/>
<path d="M152.2 13L152.2 9" stroke="#807FCB" stroke-width="2" stroke-linecap="round"/>
<path d="M157.8 13L157.8 9" stroke="#807FCB" stroke-width="2" stroke-linecap="round"/>
<path d="M163.4 13L163.4 9" stroke="#807FCB" stroke-width="2" stroke-linecap="round"/>
<path d="M169 13L169 9" stroke="#807FCB" stroke-width="2" stroke-linecap="round"/>
<path d="M174.6 13L174.6 9" stroke="#807FCB" stroke-width="2" stroke-linecap="round"/>
<path d="M180.2 13L180.2 9" stroke="#807FCB" stroke-width="2" stroke-linecap="round"/>
<path d="M185.8 13L185.8 9" stroke="#807FCB" stroke-width="2" stroke-linecap="round"/>
<path d="M191.4 13L191.4 9" stroke="#807FCB" stroke-width="2" stroke-linecap="round"/>
<path d="M197 13L197 9" stroke="#807FCB" stroke-width="2" stroke-linecap="round"/>
<path d="M202.6 13L202.6 9" stroke="#807FCB" stroke-width="2" stroke-linecap="round"/>
<path d="M208.2 13L208.2 9" stroke="#807FCB" stroke-width="2" stroke-linecap="round"/>
<path d="M213.8 13L213.8 9" stroke="#807FCB" stroke-width="2" stroke-linecap="round"/>
<path d="M219.4 13L219.4 9" stroke="#807FCB" stroke-width="2" stroke-linecap="round"/>
<path d="M225 13L225 9" stroke="#807FCB" stroke-width="2" stroke-linecap="round"/>
<path d="M230.6 13L230.6 9" stroke="#807FCB" stroke-width="2" stroke-linecap="round"/>
<path d="M236.2 13L236.2 9" stroke="#807FCB" stroke-width="2" stroke-linecap="round"/>
<path d="M241.8 13L241.8 9" stroke="#807FCB" stroke-width="2" stroke-linecap="round"/>
<path d="M247.4 13L247.4 9" stroke="#807FCB" stroke-width="2" stroke-linecap="round"/>
<path d="M253 13L253 9" stroke="#807FCB" stroke-width="2" stroke-linecap="round"/>
<path d="M258.6 13L258.6 9" stroke="#807FCB" stroke-width="2" stroke-linecap="round"/>
<path d="M264.2 13L264.2 9" stroke="#807FCB" stroke-width="2" stroke-linecap="round"/>
<path d="M269.8 13L269.8 9" stroke="#807FCB" stroke-width="2" stroke-linecap="round"/>
<path d="M275.4 13L275.4 9" stroke="#807FCB" stroke-width="2" stroke-linecap="round"/>
<path d="M281 13L281 9" stroke="#807FCB" stroke-width="2" stroke-linecap="round"/>
<path d="M286.6 13L286.6 9" stroke="#807FCB" stroke-width="2" stroke-linecap="round"/>
<path d="M292.2 13L292.2 9" stroke="#807FCB" stroke-width="2" stroke-linecap="round"/>
<path d="M297.8 13L297.8 9" stroke="#807FCB" stroke-width="2" stroke-linecap="round"/>
<path d="M303.4 13L303.4 9" stroke="#807FCB" stroke-width="2" stroke-linecap="round"/>
<path d="M309 13L309 9" stroke="#807FCB" stroke-width="2" stroke-linecap="round"/>
<path d="M314.6 13L314.6 9" stroke="#807FCB" stroke-width="2" stroke-linecap="round"/>
<path d="M320.2 13L320.2 9" stroke="#807FCB" stroke-width="2" stroke-linecap="round"/>
<path d="M325.8 13L325.8 9" stroke="#807FCB" stroke-width="2" stroke-linecap="round"/>
<path d="M331.4 13L331.4 9" stroke="#807FCB" stroke-width="2" stroke-linecap="round"/>
<path d="M337 13L337 9" stroke="#807FCB" stroke-width="2" stroke-linecap="round"/>
<path d="M342.6 13L342.6 9" stroke="#807FCB" stroke-width="2" stroke-linecap="round"/>
<path d="M348.2 13L348.2 9" stroke="#807FCB" stroke-width="2" stroke-linecap="round"/>
<path d="M353.8 13L353.8 9" stroke="#807FCB" stroke-width="2" stroke-linecap="round"/>
<path d="M359.4 13L359.4 9" stroke="#807FCB" stroke-width="2" stroke-linecap="round"/>
<path d="M365 13L365 9" stroke="#807FCB" stroke-width="2" stroke-linecap="round"/>
<path d="M370.6 13L370.6 9" stroke="#807FCB" stroke-width="2" stroke-linecap="round"/>
<path d="M376.2 13L376.2 9" stroke="#807FCB" stroke-width="2" stroke-linecap="round"/>
<path d="M381.8 13L381.8 9" stroke="#807FCB" stroke-width="2" stroke-linecap="round"/>
<path d="M387.4 13L387.4 9" stroke="#807FCB" stroke-width="2" stroke-linecap="round"/>
<path d="M393 13L393 9" stroke="#807FCB" stroke-width="2" stroke-linecap="round"/>
<path d="M398.6 13L398.6 9" stroke="#807FCB" stroke-width="2" stroke-linecap="round"/>
<path d="M404.2 13L404.2 9" stroke="#807FCB" stroke-width="2" stroke-linecap="round"/>
<path d="M409.8 13L409.8 9" stroke="#807FCB" stroke-width="2" stroke-linecap="round"/>
<path d="M415.4 13L415.4 9" stroke="#807FCB" stroke-width="2" stroke-linecap="round"/>
<path d="M421 13L421 9" stroke="#807FCB" stroke-width="2" stroke-linecap="round"/>
<path d="M426.6 13L426.6 9" stroke="#807FCB" stroke-width="2" stroke-linecap="round"/>
<path d="M432.2 13L432.2 9" stroke="#807FCB" stroke-width="2" stroke-linecap="round"/>
<path d="M437.8 13L437.8 9" stroke="#807FCB" stroke-width="2" stroke-linecap="round"/>
<path d="M443.4 13L443.4 9" stroke="#807FCB" stroke-width="2" stroke-linecap="round"/>
<path d="M449 13L449 9" stroke="#807FCB" stroke-width="2" stroke-linecap="round"/>
<path d="M454.6 13L454.6 9" stroke="#807FCB" stroke-width="2" stroke-linecap="round"/>
<path d="M460.2 13L460.2 9" stroke="#807FCB" stroke-width="2" stroke-linecap="round"/>
<path d="M465.8 13L465.8 9" stroke="#807FCB" stroke-width="2" stroke-linecap="round"/>
<path d="M471.4 13L471.4 9" stroke="#807FCB" stroke-width="2" stroke-linecap="round"/>
<path d="M477 13L477 9" stroke="#807FCB" stroke-width="2" stroke-linecap="round"/>
<path d="M482.6 13L482.6 9" stroke="#807FCB" stroke-width="2" stroke-linecap="round"/>
<path d="M488.2 13L488.2 9" stroke="#807FCB" stroke-width="2" stroke-linecap="round"/>
<path d="M493.8 13L493.8 9" stroke="#807FCB" stroke-width="2" stroke-linecap="round"/>
<path d="M499.4 13L499.4 9" stroke="#807FCB" stroke-width="2" stroke-linecap="round"/>
<path d="M505 13L505 9" stroke="#807FCB" stroke-width="2" stroke-linecap="round"/>
<path d="M510.6 13L510.6 9" stroke="#807FCB" stroke-width="2" stroke-linecap="round"/>
<path d="M516.2 13L516.2 9" stroke="#807FCB" stroke-width="2" stroke-linecap="round"/>
<path d="M521.8 13L521.8 9" stroke="#807FCB" stroke-width="2" stroke-linecap="round"/>
<path d="M527.4 13L527.4 9" stroke="#807FCB" stroke-width="2" stroke-linecap="round"/>
<path d="M533 13L533 9" stroke="#807FCB" stroke-width="2" stroke-linecap="round"/>
<path d="M538.6 13L538.6 9" stroke="#807FCB" stroke-width="2" stroke-linecap="round"/>
<path d="M544.2 13L544.2 9" stroke="#807FCB" stroke-width="2" stroke-linecap="round"/>
<path d="M549.8 13L549.8 9" stroke="#807FCB" stroke-width="2" stroke-linecap="round"/>
<path d="M555.4 13L555.4 9" stroke="#807FCB" stroke-width="2" stroke-linecap="round"/>
<path d="M561 13L561 9" stroke="#807FCB" stroke-width="2" stroke-linecap="round"/>
<path d="M566.6 13L566.6 9" stroke="#807FCB" stroke-width="2" stroke-linecap="round"/>
<path d="M572.2 13L572.2 9" stroke="#807FCB" stroke-width="2" stroke-linecap="round"/>
<path d="M577.8 13L577.8 9" stroke="#807FCB" stroke-width="2" stroke-linecap="round"/>
<path d="M583.4 13L583.4 9" stroke="#807FCB" stroke-width="2" stroke-linecap="round"/>
<path d="M589 13L589 9" stroke="#807FCB" stroke-width="2" stroke-linecap="round"/>
<path d="M594.6 13L594.6 9" stroke="#807FCB" stroke-width="2" stroke-linecap="round"/>
<path d="M600.2 13L600.2 9" stroke="#807FCB" stroke-width="2" stroke-linecap="round"/>
<path d="M605.8 13L605.8 9" stroke="#807FCB" stroke-width="2" stroke-linecap="round"/>
<path d="M611.4 13L611.4 9" stroke="#807FCB" stroke-width="2" stroke-linecap="round"/>
<path d="M617 13L617 9" stroke="#807FCB" stroke-width="2" stroke-linecap="round"/>
<path d="M622.6 13L622.6 9" stroke="#807FCB" stroke-width="2" stroke-linecap="round"/>
<path d="M628.2 13L628.2 9" stroke="#807FCB" stroke-width="2" stroke-linecap="round"/>
<path d="M633.8 13L633.8 9" stroke="#807FCB" stroke-width="2" stroke-linecap="round"/>
<path d="M639.4 13L639.4 9" stroke="#807FCB" stroke-width="2" stroke-linecap="round"/>
<path d="M645 13L645 9" stroke="#807FCB" stroke-width="2" stroke-linecap="round"/>
<path d="M650.6 13L650.6 9" stroke="#807FCB" stroke-width="2" stroke-linecap="round"/>
<path d="M656.2 13L656.2 9" stroke="#807FCB" stroke-width="2" stroke-linecap="round"/>
<path d="M661.8 13L661.8 9" stroke="#807FCB" stroke-width="2" stroke-linecap="round"/>
<path d="M667.4 13L667.4 9" stroke="#807FCB" stroke-width="2" stroke-linecap="round"/>
<path d="M673 13L673 9" stroke="#807FCB" stroke-width="2" stroke-linecap="round"/>
<path d="M678.6 13L678.6 9" stroke="#807FCB" stroke-width="2" stroke-linecap="round"/>
<path d="M684.2 13L684.2 9" stroke="#807FCB" stroke-width="2" stroke-linecap="round"/>
<path d="M689.8 13L689.8 9" stroke="#807FCB" stroke-width="2" stroke-linecap="round"/>
<path d="M695.4 13L695.4 9" stroke="#807FCB" stroke-width="2" stroke-linecap="round"/>
<path d="M701 13L701 9" stroke="#807FCB" stroke-width="2" stroke-linecap="round"/>
<path d="M706.6 13L706.6 9" stroke="#807FCB" stroke-width="2" stroke-linecap="round"/>
<path d="M712.199 13L712.199 9" stroke="#807FCB" stroke-width="2" stroke-linecap="round"/>
<path d="M717.8 13L717.8 9" stroke="#807FCB" stroke-width="2" stroke-linecap="round"/>
<path d="M723.399 13L723.399 9" stroke="#807FCB" stroke-width="2" stroke-linecap="round"/>
<path d="M729 13L729 9" stroke="#807FCB" stroke-width="2" stroke-linecap="round"/>
<path d="M734.599 13L734.599 9" stroke="#807FCB" stroke-width="2" stroke-linecap="round"/>
<path d="M740.199 13L740.199 9" stroke="#807FCB" stroke-width="2" stroke-linecap="round"/>
<path d="M745.799 13L745.799 9" stroke="#807FCB" stroke-width="2" stroke-linecap="round"/>
<path d="M751.399 15L751.399 7" stroke="#302EC8" stroke-width="2" stroke-linecap="round"/>
<path d="M756.999 13L756.999 9" stroke="#302EC8" stroke-width="2" stroke-linecap="round"/>
<path d="M762.599 13L762.599 9" stroke="#302EC8" stroke-width="2" stroke-linecap="round"/>
<path d="M768.199 18L768.199 4" stroke="#302EC8" stroke-width="2" stroke-linecap="round"/>
<path d="M773.799 13L773.799 9" stroke="#302EC8" stroke-width="2" stroke-linecap="round"/>
<path d="M779.399 18L779.399 4" stroke="#302EC8" stroke-width="2" stroke-linecap="round"/>
<path d="M784.999 15L784.999 7" stroke="#302EC8" stroke-width="2" stroke-linecap="round"/>
<path d="M790.599 18L790.599 4" stroke="#302EC8" stroke-width="2" stroke-linecap="round"/>
<path d="M796.199 18L796.199 4" stroke="#302EC8" stroke-width="2" stroke-linecap="round"/>
<path d="M801.799 21L801.799 0.999999" stroke="#302EC8" stroke-width="2" stroke-linecap="round"/>
<path d="M807.399 21L807.399 0.999999" stroke="#302EC8" stroke-width="2" stroke-linecap="round"/>
<path d="M812.999 18L812.999 4" stroke="#302EC8" stroke-width="2" stroke-linecap="round"/>
<path d="M818.599 15L818.599 7" stroke="#302EC8" stroke-width="2" stroke-linecap="round"/>
<path d="M824.199 15L824.199 7" stroke="#302EC8" stroke-width="2" stroke-linecap="round"/>
<path d="M829.799 15L829.799 7" stroke="#302EC8" stroke-width="2" stroke-linecap="round"/>
<path d="M835.399 15L835.399 7" stroke="#302EC8" stroke-width="2" stroke-linecap="round"/>
<path d="M840.999 15L840.999 7" stroke="#302EC8" stroke-width="2" stroke-linecap="round"/>
</svg>
